<?xml version="1.0" encoding="UTF-8" standalone="no"?>
<!-- Created with Inkscape (http://www.inkscape.org/) -->

<svg
   xmlns:dc="http://purl.org/dc/elements/1.1/"
   xmlns:cc="http://creativecommons.org/ns#"
   xmlns:rdf="http://www.w3.org/1999/02/22-rdf-syntax-ns#"
   xmlns:svg="http://www.w3.org/2000/svg"
   xmlns="http://www.w3.org/2000/svg"
   xmlns:sodipodi="http://sodipodi.sourceforge.net/DTD/sodipodi-0.dtd"
   xmlns:inkscape="http://www.inkscape.org/namespaces/inkscape"
   id="svg2"
   version="1.1"
   inkscape:version="0.48.2 r9819"
   width="475"
   height="667.3"
   xml:space="preserve"
   sodipodi:docname="mises_austria_logo.ai"><metadata
     id="metadata8"><rdf:RDF><cc:Work
         rdf:about=""><dc:format>image/svg+xml</dc:format><dc:type
           rdf:resource="http://purl.org/dc/dcmitype/StillImage" /><dc:title></dc:title></cc:Work></rdf:RDF></metadata><defs
     id="defs6"><clipPath
       clipPathUnits="userSpaceOnUse"
       id="clipPath16"><path
         d="m 0,533.84 380,0 L 380,0 0,0 0,533.84 z"
         id="path18" /></clipPath><clipPath
       clipPathUnits="userSpaceOnUse"
       id="clipPath118"><path
         d="m 49.7983,215.138 28.482,0 0,-79.728 -28.482,0 0,79.728 z"
         id="path120" /></clipPath><clipPath
       clipPathUnits="userSpaceOnUse"
       id="clipPath122"><path
         d="m 61.4321,215.138 5.0376,0 0,-26.548 -5.0376,0 0,26.548 z"
         id="path124" /></clipPath><clipPath
       clipPathUnits="userSpaceOnUse"
       id="clipPath126"><path
         d="m 49.7983,188.548 28.3033,0 0,-26.548 -28.3033,0 0,26.548 z"
         id="path128" /></clipPath><clipPath
       clipPathUnits="userSpaceOnUse"
       id="clipPath130"><path
         d="m 49.8823,161.958 28.398,0 0,-26.548 -28.398,0 0,26.548 z"
         id="path132" /></clipPath><clipPath
       clipPathUnits="userSpaceOnUse"
       id="clipPath178"><path
         d="m 103.114,211.146 43.701,0 0,-79.726 -43.701,0 0,79.726 z"
         id="path180" /></clipPath><clipPath
       clipPathUnits="userSpaceOnUse"
       id="clipPath182"><path
         d="m 105.653,211.146 38.403,0 0,-26.548 -38.403,0 0,26.548 z"
         id="path184" /></clipPath><clipPath
       clipPathUnits="userSpaceOnUse"
       id="clipPath186"><path
         d="m 103.114,184.556 43.701,0 0,-26.548 -43.701,0 0,26.548 z"
         id="path188" /></clipPath><clipPath
       clipPathUnits="userSpaceOnUse"
       id="clipPath190"><path
         d="m 119.891,157.968 10.296,0 0,-26.548 -10.296,0 0,26.548 z"
         id="path192" /></clipPath></defs><sodipodi:namedview
     pagecolor="#ffffff"
     bordercolor="#666666"
     borderopacity="1"
     objecttolerance="10"
     gridtolerance="10"
     guidetolerance="10"
     inkscape:pageopacity="0"
     inkscape:pageshadow="2"
     inkscape:window-width="640"
     inkscape:window-height="480"
     id="namedview4"
     showgrid="false"
     inkscape:zoom="0.35366403"
     inkscape:cx="237.5"
     inkscape:cy="333.64999"
     inkscape:window-x="0"
     inkscape:window-y="0"
     inkscape:window-maximized="0"
     inkscape:current-layer="g10" /><g
     id="g10"
     inkscape:groupmode="layer"
     inkscape:label="mises_austria_logo"
     transform="matrix(1.25,0,0,-1.25,0,667.3)"><g
       id="g12"><g
         id="g14"
         clip-path="url(#clipPath16)"><g
           id="g20"
           transform="translate(0,533.7832)"><path
             d="m 0,0 0,-387.939 c 33.309,-67.763 101.779,-138.165 176.627,-145.844 l 26.746,0 c 74.848,7.679 143.318,78.081 176.627,145.844 L 380,0 0,0 z"
             style="fill:#d7d7d6;fill-opacity:1;fill-rule:nonzero;stroke:none"
             id="path22" /></g><g
           id="g24"
           transform="translate(0,266.8916)"><path
             d="m 0,0 0,-121.048 c 33.309,-67.763 101.779,-138.165 176.627,-145.844 l 13.373,0 L 190,0 0,0 z"
             style="fill:#1c6dba;fill-opacity:1;fill-rule:nonzero;stroke:none"
             id="path26" /></g><path
           d="m 190,533.84 190,0 0,-266.892 -190,0 0,266.892 z"
           style="fill:#1c6dba;fill-opacity:1;fill-rule:nonzero;stroke:none"
           id="path28" /><g
           id="g30"
           transform="translate(0,533.7832)"><path
             d="M 0,0 0,-135.953 312.162,-478.9 c 26.609,24.612 48.953,54.666 64.635,84.692 L 18.108,0 0,0 z"
             style="fill:#cb2c34;fill-opacity:1;fill-rule:nonzero;stroke:none"
             id="path32" /></g><g
           id="g34"
           transform="translate(253.2373,223.8457)"><path
             d="m 0,0 0,-64.434 77.771,-85.433 c 11.407,12.625 21.736,26.148 30.769,40.007 L 8.582,0 0,0 z"
             style="fill:#ffffff;fill-opacity:1;fill-rule:nonzero;stroke:none"
             id="path36" /></g><g
           id="g38"
           transform="translate(99.1167,393.8276)"><path
             d="m 0,0 0,-64.434 147.962,-162.54 c 12.613,11.656 23.197,25.904 30.631,40.121 L 8.583,0 0,0 z"
             style="fill:#ffffff;fill-opacity:1;fill-rule:nonzero;stroke:none"
             id="path40" /></g><g
           id="g42"
           transform="translate(0,438.3936)"><path
             d="m 0,0 137.9,-151.487 c 12.613,11.656 23.197,25.904 30.631,40.121 L 0,73.861 0,0 z"
             style="fill:#ffffff;fill-opacity:1;fill-rule:nonzero;stroke:none"
             id="path44" /></g><g
           id="g46"
           transform="translate(24.4307,454.1553)"><path
             d="M 0,0 24.466,-6.474 44.273,9.28 50.9,-15.146 l 23.547,-9.276 -17.84,-17.952 3.74,-25.03 -24.466,6.473 L 16.073,-76.685 9.447,-52.259 -14.1,-42.982 3.739,-25.031 0,0 z"
             style="fill:#cdd6d9;fill-opacity:1;fill-rule:nonzero;stroke:none"
             id="path48" /></g><g
           id="g50"
           transform="translate(68.7041,463.4355)"><path
             d="M 0,0 6.627,-24.426 -14.1,-42.982 0,0 z"
             style="fill:#000000;fill-opacity:1;fill-rule:nonzero;stroke:none"
             id="path52" /></g><g
           id="g54"
           transform="translate(24.4307,454.1553)"><path
             d="M 0,0 60.347,-67.404 35.881,-60.931 16.073,-76.685 9.447,-52.259 -14.101,-42.982 3.739,-25.03 0,0 z"
             style="fill:#000000;fill-opacity:1;fill-rule:nonzero;stroke:none"
             id="path56" /></g><g
           id="g58"
           transform="translate(54.604,420.4531)"><path
             d="M 0,0 -14.1,-42.982 -20.727,-18.557 0,0 z"
             style="fill:#cdd6d9;fill-opacity:1;fill-rule:nonzero;stroke:none"
             id="path60" /></g><g
           id="g62"
           transform="translate(54.604,420.4531)"><path
             d="M 0,0 -44.273,-9.28 -26.434,8.672 0,0 z"
             style="fill:#cdd6d9;fill-opacity:1;fill-rule:nonzero;stroke:none"
             id="path64" /></g><g
           id="g66"
           transform="translate(98.8779,429.7334)"><path
             d="M 0,0 -17.84,-17.952 -44.274,-9.28 0,0 z"
             style="fill:#000000;fill-opacity:1;fill-rule:nonzero;stroke:none"
             id="path68" /></g><g
           id="g70"
           transform="translate(236.2998,214.5654)"><path
             d="m 0,0 24.467,-6.474 19.807,15.754 6.627,-24.425 23.547,-9.277 -17.84,-17.951 3.74,-25.031 -24.467,6.474 -19.808,-15.754 -6.626,24.425 -23.548,9.278 L 3.739,-25.03 0,0 z"
             style="fill:#cdd6d9;fill-opacity:1;fill-rule:nonzero;stroke:none"
             id="path72" /></g><g
           id="g74"
           transform="translate(280.5742,223.8457)"><path
             d="M 0,0 6.627,-24.425 -14.101,-42.981 0,0 z"
             style="fill:#000000;fill-opacity:1;fill-rule:nonzero;stroke:none"
             id="path76" /></g><g
           id="g78"
           transform="translate(236.2998,214.5664)"><path
             d="M 0,0 60.348,-67.404 35.881,-60.931 16.073,-76.685 9.447,-52.26 -14.101,-42.982 3.739,-25.031 0,0 z"
             style="fill:#000000;fill-opacity:1;fill-rule:nonzero;stroke:none"
             id="path80" /></g><g
           id="g82"
           transform="translate(266.4736,180.8643)"><path
             d="M 0,0 -14.101,-42.982 -20.727,-18.558 0,0 z"
             style="fill:#cdd6d9;fill-opacity:1;fill-rule:nonzero;stroke:none"
             id="path84" /></g><g
           id="g86"
           transform="translate(266.4736,180.8643)"><path
             d="M 0,0 -44.274,-9.28 -26.435,8.671 0,0 z"
             style="fill:#cdd6d9;fill-opacity:1;fill-rule:nonzero;stroke:none"
             id="path88" /></g><g
           id="g90"
           transform="translate(310.748,190.1436)"><path
             d="M 0,0 -17.84,-17.951 -44.274,-9.279 0,0 z"
             style="fill:#000000;fill-opacity:1;fill-rule:nonzero;stroke:none"
             id="path92" /></g><g
           id="g94"
           transform="translate(285.0439,500.1484)"><path
             d="M 0,0 C -0.2,0.2 0.427,1.104 1.394,2.006 2.998,3.506 3.12,3.868 2.802,6.187 2.437,8.852 2.888,9.324 4.378,7.834 5.74,6.472 5.523,2.915 3.993,1.515 2.565,0.207 0.555,-0.555 0,0 m 4.512,-0.832 c 4.514,4.241 2.037,11.086 -4.23,11.687 -2.498,0.241 -2.976,0.086 -4.849,-1.557 -1.9,-1.668 -2.079,-2.081 -2.079,-4.82 0,-2.791 0.161,-3.141 2.346,-5.115 2.186,-1.974 2.52,-2.094 4.932,-1.763 1.463,0.2 3.149,0.882 3.88,1.568 m -59.799,-19.616 c 5.073,2.533 15.735,9.652 15.735,10.508 0,0.516 -0.396,1.885 -0.879,3.042 l -0.879,2.101 -1.533,-1.001 c -0.842,-0.55 -3.767,-2.617 -6.5,-4.592 -5.409,-3.91 -14.403,-9.253 -15.575,-9.253 -1.442,0 -0.699,-1.112 1.11,-1.663 2.334,-0.711 6.148,-0.327 8.521,0.858 m 9.829,-2.604 c 3.82,1.934 11.012,7.105 11.012,7.916 0,0.298 -0.883,1.215 -1.961,2.037 l -1.961,1.496 -4.139,-3.493 c -2.275,-1.921 -5.988,-4.649 -8.251,-6.064 -2.263,-1.414 -4.113,-2.8 -4.113,-3.08 0,-0.28 1.363,-0.509 3.03,-0.509 2.238,0 3.904,0.443 6.383,1.697 m 108.269,-2.487 c 1.73,0.664 0.807,1.675 -5.222,5.72 -3.344,2.242 -8.095,5.761 -10.559,7.821 -2.463,2.059 -4.76,3.65 -5.105,3.537 -0.346,-0.113 -0.709,-1.178 -0.809,-2.365 -0.166,-1.987 0.093,-2.426 3.223,-5.47 6.486,-6.308 15.008,-10.572 18.472,-9.243 m -99.092,0.212 c 2.712,1.23 8.643,6.56 8.643,7.766 0,0.784 -2.185,1.89 -3.732,1.89 -0.781,0 -11.094,-9.225 -11.492,-10.279 -0.346,-0.915 4.125,-0.492 6.581,0.623 m 54.233,0.171 c 3.307,1.848 5.697,5.074 5.73,7.73 l 0.026,2.177 4.232,0.359 c 3.132,0.266 4.782,0.724 6.352,1.763 2.971,1.966 5.213,5.993 5.264,9.453 0.045,3.225 0.869,3.547 2.158,0.845 1.852,-3.886 15.418,-14.468 21.994,-17.158 4.765,-1.95 11.234,-2.5 13.32,-1.134 2.199,1.44 1.733,2.351 -1.872,3.666 -4.57,1.666 -14.302,7.591 -23.079,14.049 C 35.536,8.765 31.354,10.96 24.673,10.982 19.937,10.996 18.177,10.291 15.574,7.326 13.442,4.898 12.987,3.33 13.341,-0.359 c 0.207,-2.147 0.81,-3.503 2.642,-5.928 2.696,-3.57 2.64,-4.031 -0.851,-7.097 -1.981,-1.737 -2.297,-1.827 -5.695,-1.611 l -3.6,0.229 0,-5.543 0,-5.542 1.844,-0.563 c 2.661,-0.814 7.662,-0.2 10.271,1.258 m -26.46,-1.509 c 1.53,0.41 1.673,0.885 2.154,7.186 l 0.381,4.986 -3.608,-0.37 -3.609,-0.369 -2.401,2.605 c -2.853,3.095 -3.019,4.663 -0.726,6.86 2.349,2.25 3.431,4.829 3.431,8.176 0,2.433 -0.283,3.195 -1.844,4.974 -2.695,3.068 -6.054,4.374 -11.277,4.383 -3.9,0.005 -4.796,-0.22 -9.078,-2.286 -2.613,-1.26 -8.581,-4.834 -13.262,-7.944 -11.064,-7.348 -17.357,-11.042 -24.679,-14.485 l -5.958,-2.802 1.702,-0.938 c 1.125,-0.621 3.006,-0.932 5.549,-0.92 3.533,0.018 4.365,0.279 10.229,3.242 7.366,3.721 17.054,9.993 20.301,13.144 1.231,1.196 2.348,2.066 2.479,1.934 0.132,-0.132 0.5,-1.857 0.819,-3.831 1.022,-6.349 6.6,-11.416 12.568,-11.416 1.484,0 1.549,-0.108 1.271,-2.177 -0.847,-6.314 8.004,-11.976 15.558,-9.952 m 62.003,-0.374 c 0,0.301 -1.596,1.629 -3.546,2.952 -1.95,1.323 -5.266,4.021 -7.371,5.995 l -3.825,3.59 -1.707,-0.883 c -0.953,-0.493 -1.706,-1.34 -1.706,-1.92 0,-1.049 4.66,-5.819 7.503,-7.678 3.097,-2.027 10.652,-3.485 10.652,-2.056 m -13.049,-1.682 c 0.701,0.452 0.436,0.925 -1.508,2.687 -1.296,1.175 -3.412,3.604 -4.699,5.399 -2.342,3.265 -3.525,3.846 -5.945,2.918 -3.384,-1.299 3.287,-9.208 9.311,-11.04 1.923,-0.586 1.876,-0.586 2.841,0.035 l 0,0.001 z m -60.521,-5.147 c 4,1.954 5.771,2.089 11.506,0.873 1.511,-0.32 1.81,-0.191 2.099,0.915 0.186,0.708 0.207,1.498 0.047,1.757 -0.16,0.258 -2.125,0.469 -4.369,0.471 -6.352,0.005 -8.079,0.721 -12.421,5.14 l -3.81,3.879 -2.293,-2.605 c -2.72,-3.089 -2.837,-4.362 -0.676,-7.345 1.753,-2.42 5.116,-5.477 5.688,-5.169 0.195,0.105 2.098,1.043 4.229,2.084 m 48.166,-0.486 c 1.803,1.895 3.277,3.791 3.277,4.216 0,0.424 -1.235,2.116 -2.746,3.757 l -2.744,2.986 -3.355,-2.627 c -4.417,-3.461 -5.569,-3.832 -11.901,-3.832 l -5.352,0 0,-1.767 0,-1.767 2.694,0.472 c 5.672,0.994 10.169,-0.093 14.043,-3.392 0.935,-0.796 1.95,-1.459 2.254,-1.469 0.304,-0.01 2.027,1.529 3.83,3.423 m -34.849,-9.262 -0.171,3.428 -3.593,-2.175 -3.594,-2.177 3.309,-1.687 c 1.822,-0.926 3.515,-1.491 3.765,-1.252 0.25,0.24 0.379,1.978 0.283,3.863 l 0.001,0 z m 0.112,-7.554 c 0,1.229 -6.654,5.429 -8.598,5.429 -1.166,0 2.969,-3.874 5.44,-5.098 2.744,-1.358 3.158,-1.402 3.158,-0.33 l 0,-0.001 z m 17.192,1.218 c 4.112,3.011 4.08,4.023 -0.197,6.19 -1.078,0.546 -2.788,1.614 -3.803,2.372 l -1.844,1.38 0,-3.777 c 0,-3.365 0.109,-3.735 0.993,-3.394 0.546,0.212 1.759,0.517 2.695,0.679 1.438,0.248 1.24,0.023 -1.276,-1.47 -2.226,-1.318 -2.979,-2.094 -2.979,-3.076 0,-0.722 0.149,-1.462 0.333,-1.644 0.555,-0.556 3.208,0.639 6.078,2.74 m -9.537,-4.157 c 0.307,0.898 2.131,37.001 2.213,43.829 l 0.062,5.105 -3.688,0.362 c -2.029,0.198 -3.816,0.241 -3.972,0.094 -0.156,-0.145 -0.371,-10.969 -0.478,-24.052 l -0.194,-23.787 2.463,-1.118 C 0.333,-55 0.689,-55.043 1.009,-54.109 m 10.643,17.822 c -1.208,0.487 -0.781,1.326 0.676,1.326 1.656,0 2.377,-0.876 1.118,-1.359 -0.491,-0.189 -0.937,-0.324 -0.989,-0.298 -0.053,0.026 -0.415,0.173 -0.805,0.331 m 2.767,-22.012 c 5.234,3.32 8.973,9.486 8.994,14.84 0.009,2.676 -0.244,3.444 -1.745,5.265 -2.536,3.077 -5.415,4.37 -9.71,4.359 -6.121,-0.014 -8.031,-1.89 -5.161,-5.069 1.268,-1.407 2.199,-1.836 4.567,-2.111 2.594,-0.299 3.264,-0.152 5.248,1.161 l 2.274,1.505 -0.002,-1.285 c -0.014,-4.93 -4.841,-10.873 -11.212,-13.798 -1.944,-0.892 -3.536,-1.949 -3.536,-2.346 0,-0.684 5.84,-4.061 7.123,-4.119 0.328,-0.015 1.752,0.704 3.162,1.598 l -0.002,0 z M -6.569,-80.208 c 0.101,3.216 -0.133,7.457 -0.431,7.768 -0.591,0.617 -2.029,-1.72 -2.3,-3.739 -0.316,-2.355 0.99,-6.44 2.059,-6.44 0.328,0 0.631,1.085 0.672,2.411 m 12.406,1.182 c 0,1.852 -1.322,4.349 -2.302,4.349 -0.294,0 -0.526,-2.106 -0.516,-4.68 l 0.017,-4.681 1.401,1.592 c 0.87,0.989 1.4,2.284 1.4,3.42 m -5.774,0.064 0.235,7.057 -1.911,1.165 c -1.052,0.641 -2.167,1.077 -2.479,0.969 -0.568,-0.197 -0.586,-12.502 -0.023,-14.884 0.326,-1.377 2.593,-2.624 3.399,-1.87 0.299,0.279 0.649,3.682 0.778,7.563 l 0.001,0 z m -16.041,42.743 c -0.155,0.155 -0.146,0.501 0.024,0.77 0.396,0.643 3.071,0.633 3.071,-0.014 0,-0.556 -2.645,-1.203 -3.092,-0.757 l -0.003,10e-4 z m 27.02,-54.403 c 4.717,2.992 7.144,7.327 7.68,13.725 0.285,3.397 0.145,4.234 -1.148,6.874 -2.934,5.992 -9.145,10.266 -21.098,14.518 -7.502,2.669 -10.372,4.085 -13.063,6.447 -2.732,2.399 -3.675,4.408 -3.675,7.828 0,3.141 0.408,3.475 2.038,1.672 0.924,-1.02 1.565,-1.158 4.428,-0.951 2.912,0.211 3.563,0.484 4.998,2.089 0.907,1.016 1.551,2.147 1.432,2.512 -0.772,2.336 -8.535,2.715 -12.582,0.612 -3.655,-1.898 -5.59,-4.771 -5.876,-8.72 -0.532,-7.358 3.41,-11.449 18.613,-19.313 6.462,-3.343 11.35,-6.269 12.868,-7.704 2.28,-2.154 2.449,-2.52 2.449,-5.277 0,-3.339 -0.984,-5.62 -3.765,-8.722 -2.16,-2.41 -2.336,-3.279 -0.915,-4.521 0.987,-0.862 4.11,-2.645 4.712,-2.689 0.172,-0.014 1.479,0.717 2.904,1.62 m -17.119,-19.765 c 0,0.918 -0.256,1.668 -0.569,1.668 -0.311,0 -0.566,-0.908 -0.566,-2.018 0,-1.202 0.229,-1.878 0.566,-1.669 0.313,0.193 0.569,1.101 0.569,2.019 m 8.501,-0.993 c 0.005,0.92 -0.232,1.445 -0.559,1.243 -0.311,-0.193 -0.563,-1.293 -0.558,-2.444 0.005,-1.562 0.149,-1.878 0.558,-1.243 0.303,0.468 0.554,1.568 0.559,2.444 m -3.657,-2.12 c 0.464,4.961 -0.068,7.418 -1.868,8.612 l -1.275,0.847 0,-5.986 c 0,-4.685 0.194,-6.18 0.893,-6.877 1.515,-1.517 1.834,-1.036 2.25,3.404 m 11.108,-8.12 c 3.429,2.614 5.263,6.453 5.52,11.553 0.44,8.708 -2.478,12.342 -16.934,21.095 -3.276,1.985 -6.565,4.161 -7.309,4.838 -3.623,3.299 -4.61,10.306 -1.986,14.093 0.817,1.178 1.336,2.531 1.153,3.006 -0.181,0.474 -1.719,1.544 -3.418,2.377 l -3.087,1.513 -1.504,-1.652 c -3.02,-3.317 -4.262,-6.868 -4.268,-12.2 -0.005,-4.27 0.202,-5.29 1.67,-8.227 2.396,-4.797 5.201,-7.43 14.353,-13.472 4.447,-2.936 8.553,-5.862 9.127,-6.503 2.33,-2.606 2.012,-7.783 -0.688,-11.217 -2.036,-2.588 -1.415,-4.127 2.483,-6.16 2.221,-1.157 2.082,-1.185 4.888,0.956 m -16.147,-14.179 c -0.157,0.384 -0.274,-0.068 -0.262,-1.004 0.009,-0.936 0.138,-1.251 0.282,-0.698 0.144,0.552 0.134,1.317 -0.023,1.701 l 0.003,0.001 z m 3.81,-2.088 c -0.793,4.314 -1.914,3.88 -1.914,-0.741 0,-2.365 0.279,-4.187 0.709,-4.62 1.094,-1.101 1.809,2.08 1.205,5.361 m 7.772,-7.323 c 3.175,2.869 4.499,5.676 4.499,9.542 0,3.334 -1.337,6.772 -3.611,9.282 -0.667,0.738 -3.648,3.073 -6.625,5.19 -2.976,2.117 -6.359,4.897 -7.517,6.179 -1.868,2.067 -2.106,2.668 -2.106,5.316 0,1.886 0.412,3.753 1.117,5.069 l 1.118,2.083 -1.57,1.313 c -0.862,0.721 -2.518,1.819 -3.678,2.438 -2.633,1.405 -3.536,0.933 -5.495,-2.877 -1.188,-2.313 -1.421,-3.554 -1.421,-7.599 0,-4.147 0.226,-5.295 1.589,-8.07 1.848,-3.761 5.707,-7.454 11.202,-10.719 4.402,-2.616 7.802,-5.811 8.302,-7.803 0.193,-0.766 0.057,-2.201 -0.301,-3.191 -0.85,-2.352 -0.833,-6.698 0.032,-7.561 1.097,-1.098 2.01,-0.81 4.465,1.407 l 0,0.001 z m -14.934,-10.1 c 1.629,2.2 1.605,2.779 -0.147,3.578 -1.224,0.557 -1.623,0.462 -2.837,-0.679 -1.208,-1.135 -1.411,-1.825 -1.401,-4.775 0.01,-2.368 0.401,-4.245 1.254,-6 l 1.241,-2.552 0.307,4.352 c 0.232,3.295 0.616,4.772 1.583,6.076 m 15.447,-7.054 c 2.752,5.685 1.121,8.875 -8.711,17.045 -4.522,3.756 -5.455,5.426 -5.457,9.768 l -0.002,3.523 -2.461,1.442 c -1.353,0.793 -2.752,1.442 -3.107,1.442 -2.567,0 -3.475,-8.162 -1.363,-12.261 1.557,-3.026 5.91,-6.912 9.963,-8.896 3.96,-1.939 6.815,-4.39 7.753,-6.656 0.454,-1.094 0.61,-3.167 0.428,-5.696 -0.274,-3.837 -0.248,-3.945 0.762,-3.031 0.576,0.521 1.563,2.015 2.195,3.321 l 0,-0.001 z m -5.093,-0.798 c 0,6.027 -1.401,7.051 -1.999,1.461 -0.465,-4.343 -0.009,-6.415 1.196,-5.416 0.524,0.434 0.803,1.81 0.803,3.955 m -6.825,0.828 c 0,5.49 -0.554,6.775 -1.984,4.595 -1.113,-1.699 -0.942,-6.195 0.344,-9.008 1.081,-2.368 1.64,-0.863 1.64,4.413 m 2.278,0.567 c -0.303,5.012 -0.378,3.784 -0.381,-6.241 -0.002,-10.028 0.071,-11.255 0.377,-6.241 0.209,3.433 0.211,9.05 0.002,12.482 l 0.002,0 z m -1.377,-20.583 c -0.635,0.906 -0.883,2.645 -0.883,6.162 l 0,4.901 -3.263,1.923 c -4.293,2.531 -5.815,5.375 -5.815,10.86 0,2.812 0.326,4.513 1.186,6.2 l 1.187,2.326 -1.205,1.482 c -4.241,5.208 -5.625,13.404 -3.012,17.825 0.701,1.188 1.275,2.385 1.275,2.66 0,0.276 -1.396,2.448 -3.103,4.827 -3.602,5.02 -4.264,6.983 -4.269,12.64 -0.005,4.823 0.81,7.093 4.046,11.287 l 2.309,2.993 -1.686,2.142 c -0.927,1.178 -2.409,3.545 -3.292,5.262 -1.391,2.706 -1.635,3.913 -1.835,9.085 -0.269,7.046 0.323,9.679 3.02,13.418 1.09,1.509 2.13,3.052 2.312,3.428 0.183,0.376 -1.101,2.084 -2.856,3.797 -5.25,5.126 -7.789,12.769 -6.022,18.124 0.646,1.957 0.6,2.076 -1.557,4.026 -1.301,1.174 -2.877,3.482 -3.8,5.561 -0.867,1.953 -1.626,3.615 -1.687,3.692 -0.06,0.078 -1.281,-0.258 -2.712,-0.746 -2.444,-0.833 -2.832,-0.815 -6.397,0.286 -2.087,0.644 -4.852,1.172 -6.146,1.174 -1.293,0.001 -4.139,0.634 -6.323,1.407 -2.184,0.771 -4.497,1.409 -5.138,1.416 -0.643,0.004 -2.941,0.904 -5.108,1.995 -2.166,1.092 -4.705,1.988 -5.64,1.992 -2.316,0.009 -7.026,2.316 -8.979,4.396 l -1.601,1.707 2.871,0.689 c 4.826,1.158 16.16,7.309 29.17,15.832 6.811,4.462 13.712,8.72 15.335,9.464 4.134,1.891 9.999,2.363 14.203,1.141 8.697,-2.528 12.777,-12.288 7.963,-19.049 -0.913,-1.281 -1.914,-2.712 -2.226,-3.182 -0.434,-0.654 -0.117,-1.26 1.35,-2.581 1.57,-1.415 2.233,-1.662 3.679,-1.373 2.963,0.593 3.479,1.561 3.432,6.443 -0.027,2.915 -0.36,4.988 -0.989,6.197 -1.335,2.56 -1.234,7.351 0.205,9.711 1.505,2.467 5.567,4.313 8.598,3.906 6.17,-0.827 8.908,-6.699 6.136,-13.164 -1.465,-3.417 -1.658,-12.601 -0.276,-13.13 1.256,-0.483 5.627,0.285 6.866,1.206 0.901,0.669 0.956,0.956 0.349,1.82 -2.054,2.921 -2.942,5.715 -2.942,9.253 0,4.556 1.244,7.485 4.385,10.316 3.703,3.34 7.596,3.998 14.301,2.417 4.845,-1.141 8.84,-3.443 18.748,-10.802 16.116,-11.972 26.049,-17.817 30.277,-17.817 3.004,0 3.345,-0.318 2.359,-2.2 -1.824,-3.479 -6.867,-6.878 -10.208,-6.878 -0.782,0 -3.153,-0.653 -5.266,-1.451 -2.607,-0.984 -4.423,-1.343 -5.649,-1.116 -1.111,0.206 -3.076,-0.089 -5.106,-0.766 -1.815,-0.605 -5.598,-1.26 -8.406,-1.455 -2.809,-0.194 -6.839,-0.5 -8.956,-0.68 l -3.852,-0.325 -1.889,-2.953 c -1.039,-1.624 -2.908,-3.76 -4.154,-4.747 -2.109,-1.67 -2.291,-2.047 -2.639,-5.442 -0.63,-6.148 -1.66,-8.21 -7.373,-14.77 l -2.763,-3.174 2.319,-3.007 c 3.405,-4.414 4.136,-6.575 4.115,-12.177 -0.026,-6.87 -1.091,-9.617 -5.567,-14.364 l -3.68,-3.9 1.049,-1.359 c 0.578,-0.748 1.803,-2.313 2.723,-3.476 1.496,-1.894 1.695,-2.629 1.904,-7.021 0.344,-7.241 -0.36,-9.166 -5.17,-14.126 -3.491,-3.601 -3.945,-4.299 -3.34,-5.134 1.961,-2.699 2.923,-5.673 2.935,-9.07 0.014,-4.233 -0.907,-6.663 -4.096,-10.795 l -2.368,-3.072 1.322,-2.3 c 1.002,-1.738 1.324,-3.166 1.324,-5.851 0,-6.257 -3.175,-10.766 -8.043,-11.419 -2.091,-0.28 -2.188,-0.39 -2.527,-2.858 -0.193,-1.412 -0.351,-3.642 -0.351,-4.956 0,-2.619 -0.967,-5.962 -1.725,-5.962 -0.265,0 -0.878,0.567 -1.363,1.26 l 0,-0.001 z"
             style="fill:#0e0e0e;fill-opacity:1;fill-rule:nonzero;stroke:none"
             id="path96" /></g><g
           id="g98"
           transform="translate(285.0439,500.1484)"><path
             d="M 0,0 C -0.2,0.2 0.427,1.104 1.394,2.006 2.998,3.506 3.12,3.868 2.802,6.187 2.437,8.852 2.888,9.324 4.378,7.834 5.74,6.472 5.523,2.915 3.993,1.515 2.565,0.207 0.555,-0.555 0,0 m 4.512,-0.832 c 4.514,4.241 2.037,11.086 -4.23,11.687 -2.498,0.241 -2.976,0.086 -4.849,-1.557 -1.9,-1.668 -2.079,-2.081 -2.079,-4.82 0,-2.791 0.161,-3.141 2.346,-5.115 2.186,-1.974 2.52,-2.094 4.932,-1.763 1.463,0.2 3.149,0.882 3.88,1.568 m -59.799,-19.616 c 5.073,2.533 15.735,9.652 15.735,10.508 0,0.516 -0.396,1.885 -0.879,3.042 l -0.879,2.101 -1.533,-1.001 c -0.842,-0.55 -3.767,-2.617 -6.5,-4.592 -5.409,-3.91 -14.403,-9.253 -15.575,-9.253 -1.442,0 -0.699,-1.112 1.11,-1.663 2.334,-0.711 6.148,-0.327 8.521,0.858 m 9.829,-2.604 c 3.82,1.934 11.012,7.105 11.012,7.916 0,0.298 -0.883,1.215 -1.961,2.037 l -1.961,1.496 -4.139,-3.493 c -2.275,-1.921 -5.988,-4.649 -8.251,-6.064 -2.263,-1.414 -4.113,-2.8 -4.113,-3.08 0,-0.28 1.363,-0.509 3.03,-0.509 2.238,0 3.904,0.443 6.383,1.697 m 108.269,-2.487 c 1.73,0.664 0.807,1.675 -5.222,5.72 -3.344,2.242 -8.095,5.761 -10.559,7.821 -2.463,2.059 -4.76,3.65 -5.105,3.537 -0.346,-0.113 -0.709,-1.178 -0.809,-2.365 -0.166,-1.987 0.093,-2.426 3.223,-5.47 6.486,-6.308 15.008,-10.572 18.472,-9.243 m -99.092,0.212 c 2.712,1.23 8.643,6.56 8.643,7.766 0,0.784 -2.185,1.89 -3.732,1.89 -0.781,0 -11.094,-9.225 -11.492,-10.279 -0.346,-0.915 4.125,-0.492 6.581,0.623 m 54.233,0.171 c 3.307,1.848 5.697,5.074 5.73,7.73 l 0.026,2.177 4.232,0.359 c 3.132,0.266 4.782,0.724 6.352,1.763 2.971,1.966 5.213,5.993 5.264,9.453 0.045,3.225 0.869,3.547 2.158,0.845 1.852,-3.886 15.418,-14.468 21.994,-17.158 4.765,-1.95 11.234,-2.5 13.32,-1.134 2.199,1.44 1.733,2.351 -1.872,3.666 -4.57,1.666 -14.302,7.591 -23.079,14.049 C 35.536,8.765 31.354,10.96 24.673,10.982 19.937,10.996 18.177,10.291 15.574,7.326 13.442,4.898 12.987,3.33 13.341,-0.359 c 0.207,-2.147 0.81,-3.503 2.642,-5.928 2.696,-3.57 2.64,-4.031 -0.851,-7.097 -1.981,-1.737 -2.297,-1.827 -5.695,-1.611 l -3.6,0.229 0,-5.543 0,-5.542 1.844,-0.563 c 2.661,-0.814 7.662,-0.2 10.271,1.258 m -26.46,-1.509 c 1.53,0.41 1.673,0.885 2.154,7.186 l 0.381,4.986 -3.608,-0.37 -3.609,-0.369 -2.401,2.605 c -2.853,3.095 -3.019,4.663 -0.726,6.86 2.349,2.25 3.431,4.829 3.431,8.176 0,2.433 -0.283,3.195 -1.844,4.974 -2.695,3.068 -6.054,4.374 -11.277,4.383 -3.9,0.005 -4.796,-0.22 -9.078,-2.286 -2.613,-1.26 -8.581,-4.834 -13.262,-7.944 -11.064,-7.348 -17.357,-11.042 -24.679,-14.485 l -5.958,-2.802 1.702,-0.938 c 1.125,-0.621 3.006,-0.932 5.549,-0.92 3.533,0.018 4.365,0.279 10.229,3.242 7.366,3.721 17.054,9.993 20.301,13.144 1.231,1.196 2.348,2.066 2.479,1.934 0.132,-0.132 0.5,-1.857 0.819,-3.831 1.022,-6.349 6.6,-11.416 12.568,-11.416 1.484,0 1.549,-0.108 1.271,-2.177 -0.847,-6.314 8.004,-11.976 15.558,-9.952 m 62.003,-0.374 c 0,0.301 -1.596,1.629 -3.546,2.952 -1.95,1.323 -5.266,4.021 -7.371,5.995 l -3.825,3.59 -1.707,-0.883 c -0.953,-0.493 -1.706,-1.34 -1.706,-1.92 0,-1.049 4.66,-5.819 7.503,-7.678 3.097,-2.027 10.652,-3.485 10.652,-2.056 m -13.049,-1.682 c 0.701,0.452 0.436,0.925 -1.508,2.687 -1.296,1.175 -3.412,3.604 -4.699,5.399 -2.342,3.265 -3.525,3.846 -5.945,2.918 -3.384,-1.299 3.287,-9.208 9.311,-11.04 1.923,-0.586 1.876,-0.586 2.841,0.035 l 0,0.001 z m -60.521,-5.147 c 4,1.954 5.771,2.089 11.506,0.873 1.511,-0.32 1.81,-0.191 2.099,0.915 0.186,0.708 0.207,1.498 0.047,1.757 -0.16,0.258 -2.125,0.469 -4.369,0.471 -6.352,0.005 -8.079,0.721 -12.421,5.14 l -3.81,3.879 -2.293,-2.605 c -2.72,-3.089 -2.837,-4.362 -0.676,-7.345 1.753,-2.42 5.116,-5.477 5.688,-5.169 0.195,0.105 2.098,1.043 4.229,2.084 m 48.166,-0.486 c 1.803,1.895 3.277,3.791 3.277,4.216 0,0.424 -1.235,2.116 -2.746,3.757 l -2.744,2.986 -3.355,-2.627 c -4.417,-3.461 -5.569,-3.832 -11.901,-3.832 l -5.352,0 0,-1.767 0,-1.767 2.694,0.472 c 5.672,0.994 10.169,-0.093 14.043,-3.392 0.935,-0.796 1.95,-1.459 2.254,-1.469 0.304,-0.01 2.027,1.529 3.83,3.423 m -34.849,-9.262 -0.171,3.428 -3.593,-2.175 -3.594,-2.177 3.309,-1.687 c 1.822,-0.926 3.515,-1.491 3.765,-1.252 0.25,0.24 0.379,1.978 0.283,3.863 l 0.001,0 z m 0.112,-7.554 c 0,1.229 -6.654,5.429 -8.598,5.429 -1.166,0 2.969,-3.874 5.44,-5.098 2.744,-1.358 3.158,-1.402 3.158,-0.33 l 0,-0.001 z m 17.192,1.218 c 4.112,3.011 4.08,4.023 -0.197,6.19 -1.078,0.546 -2.788,1.614 -3.803,2.372 l -1.844,1.38 0,-3.777 c 0,-3.365 0.109,-3.735 0.993,-3.394 0.546,0.212 1.759,0.517 2.695,0.679 1.438,0.248 1.24,0.023 -1.276,-1.47 -2.226,-1.318 -2.979,-2.094 -2.979,-3.076 0,-0.722 0.149,-1.462 0.333,-1.644 0.555,-0.556 3.208,0.639 6.078,2.74 m -9.537,-4.157 c 0.307,0.898 2.131,37.001 2.213,43.829 l 0.062,5.105 -3.688,0.362 c -2.029,0.198 -3.816,0.241 -3.972,0.094 -0.156,-0.145 -0.371,-10.969 -0.478,-24.052 l -0.194,-23.787 2.463,-1.118 C 0.333,-55 0.689,-55.043 1.009,-54.109 m 10.643,17.822 c -1.208,0.487 -0.781,1.326 0.676,1.326 1.656,0 2.377,-0.876 1.118,-1.359 -0.491,-0.189 -0.937,-0.324 -0.989,-0.298 -0.053,0.026 -0.415,0.173 -0.805,0.331 m 2.767,-22.012 c 5.234,3.32 8.973,9.486 8.994,14.84 0.009,2.676 -0.244,3.444 -1.745,5.265 -2.536,3.077 -5.415,4.37 -9.71,4.359 -6.121,-0.014 -8.031,-1.89 -5.161,-5.069 1.268,-1.407 2.199,-1.836 4.567,-2.111 2.594,-0.299 3.264,-0.152 5.248,1.161 l 2.274,1.505 -0.002,-1.285 c -0.014,-4.93 -4.841,-10.873 -11.212,-13.798 -1.944,-0.892 -3.536,-1.949 -3.536,-2.346 0,-0.684 5.84,-4.061 7.123,-4.119 0.328,-0.015 1.752,0.704 3.162,1.598 l -0.002,0 z M -6.569,-80.208 c 0.101,3.216 -0.133,7.457 -0.431,7.768 -0.591,0.617 -2.029,-1.72 -2.3,-3.739 -0.316,-2.355 0.99,-6.44 2.059,-6.44 0.328,0 0.631,1.085 0.672,2.411 m 12.406,1.182 c 0,1.852 -1.322,4.349 -2.302,4.349 -0.294,0 -0.526,-2.106 -0.516,-4.68 l 0.017,-4.681 1.401,1.592 c 0.87,0.989 1.4,2.284 1.4,3.42 m -5.774,0.064 0.235,7.057 -1.911,1.165 c -1.052,0.641 -2.167,1.077 -2.479,0.969 -0.568,-0.197 -0.586,-12.502 -0.023,-14.884 0.326,-1.377 2.593,-2.624 3.399,-1.87 0.299,0.279 0.649,3.682 0.778,7.563 l 0.001,0 z m -16.041,42.743 c -0.155,0.155 -0.146,0.501 0.024,0.77 0.396,0.643 3.071,0.633 3.071,-0.014 0,-0.556 -2.645,-1.203 -3.092,-0.757 l -0.003,0 0,10e-4 z m 27.02,-54.403 c 4.717,2.992 7.144,7.327 7.68,13.725 0.285,3.397 0.145,4.234 -1.148,6.874 -2.934,5.992 -9.145,10.266 -21.098,14.518 -7.502,2.669 -10.372,4.085 -13.063,6.447 -2.732,2.399 -3.675,4.408 -3.675,7.828 0,3.141 0.408,3.475 2.038,1.672 0.924,-1.02 1.565,-1.158 4.428,-0.951 2.912,0.211 3.563,0.484 4.998,2.089 0.907,1.016 1.551,2.147 1.432,2.512 -0.772,2.336 -8.535,2.715 -12.582,0.612 -3.655,-1.898 -5.59,-4.771 -5.876,-8.72 -0.532,-7.358 3.41,-11.449 18.613,-19.313 6.462,-3.343 11.35,-6.269 12.868,-7.704 2.28,-2.154 2.449,-2.52 2.449,-5.277 0,-3.339 -0.984,-5.62 -3.765,-8.722 -2.16,-2.41 -2.336,-3.279 -0.915,-4.521 0.987,-0.862 4.11,-2.645 4.712,-2.689 0.172,-0.014 1.479,0.717 2.904,1.62 m -17.119,-19.765 c 0,0.918 -0.256,1.668 -0.569,1.668 -0.311,0 -0.566,-0.908 -0.566,-2.018 0,-1.202 0.229,-1.878 0.566,-1.669 0.313,0.193 0.569,1.101 0.569,2.019 m 8.501,-0.993 c 0.005,0.92 -0.232,1.445 -0.559,1.243 -0.311,-0.193 -0.563,-1.293 -0.558,-2.444 0.005,-1.562 0.149,-1.878 0.558,-1.243 0.303,0.468 0.554,1.568 0.559,2.444 m -3.657,-2.12 c 0.464,4.961 -0.068,7.418 -1.868,8.612 l -1.275,0.847 0,-5.986 c 0,-4.685 0.194,-6.18 0.893,-6.877 1.515,-1.517 1.834,-1.036 2.25,3.404 m 11.108,-8.12 c 3.429,2.614 5.263,6.453 5.52,11.553 0.44,8.708 -2.478,12.342 -16.934,21.095 -3.276,1.985 -6.565,4.161 -7.309,4.838 -3.623,3.299 -4.61,10.306 -1.986,14.093 0.817,1.178 1.336,2.531 1.153,3.006 -0.181,0.474 -1.719,1.544 -3.418,2.377 l -3.087,1.513 -1.504,-1.652 c -3.02,-3.317 -4.262,-6.868 -4.268,-12.2 -0.005,-4.27 0.202,-5.29 1.67,-8.227 2.396,-4.797 5.201,-7.43 14.353,-13.472 4.447,-2.936 8.553,-5.862 9.127,-6.503 2.33,-2.606 2.012,-7.783 -0.688,-11.217 -2.036,-2.588 -1.415,-4.127 2.483,-6.16 2.221,-1.157 2.082,-1.185 4.888,0.956 m -16.147,-14.179 c -0.157,0.384 -0.274,-0.068 -0.262,-1.004 0.009,-0.936 0.138,-1.251 0.282,-0.698 0.144,0.552 0.134,1.317 -0.023,1.701 l 0.001,0 0.002,0.001 z m 3.81,-2.088 c -0.793,4.314 -1.914,3.88 -1.914,-0.741 0,-2.365 0.279,-4.187 0.709,-4.62 1.094,-1.101 1.809,2.08 1.205,5.361 m 7.772,-7.323 c 3.175,2.869 4.499,5.676 4.499,9.542 0,3.334 -1.337,6.772 -3.611,9.282 -0.667,0.738 -3.648,3.073 -6.625,5.19 -2.976,2.117 -6.359,4.897 -7.517,6.179 -1.868,2.067 -2.106,2.668 -2.106,5.316 0,1.886 0.412,3.753 1.117,5.069 l 1.118,2.083 -1.57,1.313 c -0.862,0.721 -2.518,1.819 -3.678,2.438 -2.633,1.405 -3.536,0.933 -5.495,-2.877 -1.188,-2.313 -1.421,-3.554 -1.421,-7.599 0,-4.147 0.226,-5.295 1.589,-8.07 1.848,-3.761 5.707,-7.454 11.202,-10.719 4.402,-2.616 7.802,-5.811 8.302,-7.803 0.193,-0.766 0.057,-2.201 -0.301,-3.191 -0.85,-2.352 -0.833,-6.698 0.032,-7.561 1.097,-1.098 2.01,-0.81 4.465,1.407 l -10e-4,0 10e-4,0.001 z m -14.934,-10.1 c 1.629,2.2 1.605,2.779 -0.147,3.578 -1.224,0.557 -1.623,0.462 -2.837,-0.679 -1.208,-1.135 -1.411,-1.825 -1.401,-4.775 0.01,-2.368 0.401,-4.245 1.254,-6 l 1.241,-2.552 0.307,4.352 c 0.232,3.295 0.616,4.772 1.583,6.076 m 15.447,-7.054 c 2.752,5.685 1.121,8.875 -8.711,17.045 -4.522,3.756 -5.455,5.426 -5.457,9.768 l -0.002,3.523 -2.461,1.442 c -1.353,0.793 -2.752,1.442 -3.107,1.442 -2.567,0 -3.475,-8.162 -1.363,-12.261 1.557,-3.026 5.91,-6.912 9.963,-8.896 3.96,-1.939 6.815,-4.39 7.753,-6.656 0.454,-1.094 0.61,-3.167 0.428,-5.696 -0.274,-3.837 -0.248,-3.945 0.762,-3.031 0.576,0.521 1.563,2.015 2.195,3.321 l 0,-0.001 z m -5.093,-0.798 c 0,6.027 -1.401,7.051 -1.999,1.461 -0.465,-4.343 -0.009,-6.415 1.196,-5.416 0.524,0.434 0.803,1.81 0.803,3.955 m -6.825,0.828 c 0,5.49 -0.554,6.775 -1.984,4.595 -1.113,-1.699 -0.942,-6.195 0.344,-9.008 1.081,-2.368 1.64,-0.863 1.64,4.413 m 2.278,0.567 c -0.303,5.012 -0.378,3.784 -0.381,-6.241 -0.002,-10.028 0.071,-11.255 0.377,-6.241 0.209,3.433 0.211,9.05 0.002,12.482 l 10e-4,0 10e-4,0 z"
             style="fill:#f3fefe;fill-opacity:1;fill-rule:nonzero;stroke:none"
             id="path100" /></g><g
           id="g102"
           transform="translate(24.668,160.3838)"><path
             d="m 0,0 0.144,42.088 4.055,1.304 c 2.283,0.733 4.054,1.62 4.054,2.029 0,0.738 1.83,1.651 4.615,2.302 1.339,0.313 1.538,0.63 1.538,2.445 l 0,2.086 6.292,1.772 c 9.899,2.115 20.816,1.613 36.238,0.821 4.172,-2.069 7.85,-5.822 11.57,-10.522 l 1.771,-2.237 1.551,1.958 c 4.535,5.727 8.341,9.055 12.992,11.358 11.813,2.456 25.925,1.063 37.255,-2.02 3.807,-1.288 3.92,-1.381 4.087,-3.344 0.163,-1.923 0.316,-2.061 3.216,-2.903 1.805,-0.525 3.044,-1.202 3.044,-1.663 0,-0.475 1.587,-1.289 4.055,-2.082 L 140.532,42.088 140.676,0 c 0.114,-33.49 -10e-4,-42.088 -0.56,-42.082 -0.386,0.004 -2.716,0.65 -5.177,1.437 -2.461,0.787 -7.369,2.076 -10.907,2.864 -11.098,2.474 -28.016,2.415 -47.355,-0.167 -5.547,-0.741 -6.984,-0.74 -12.864,0.009 -13.352,1.702 -20.957,2.149 -31.118,1.832 C 21.97,-36.442 15.592,-37.498 5.254,-40.651 2.662,-41.442 0.387,-42.089 0.199,-42.089 0.011,-42.089 -0.079,-23.149 0,0"
             style="fill:#ffffff;fill-opacity:1;fill-rule:nonzero;stroke:none"
             id="path104" /></g><g
           id="g106"
           transform="translate(146.8828,132.4043)"><path
             d="m 0,0 c -0.306,1.501 -1.648,2.113 -7.208,3.289 -4.195,0.887 -7.882,1.239 -13.347,1.277 -8.414,0.059 -11.746,-0.407 -11.746,-1.642 0,-0.447 -0.266,-0.814 -0.592,-0.814 -0.326,0 -0.449,-0.232 -0.273,-0.516 0.176,-0.284 -0.124,-0.628 -0.666,-0.763 -1.499,-0.374 4.086,0.041 8.674,0.644 4.189,0.549 12.335,0.091 18.623,-1.049 1.854,-0.336 3.894,-0.446 4.534,-0.242 0.778,0.247 1.036,0.164 0.779,-0.25 -0.217,-0.352 -0.006,-0.621 0.49,-0.621 0.479,0 0.809,0.31 0.732,0.687 m -99.419,-0.11 c 6.706,1.5 18.974,2.09 23.414,1.128 1.734,-0.376 4.987,-1.206 7.229,-1.845 2.982,-0.851 4.241,-0.995 4.694,-0.541 0.454,0.453 0.262,0.552 -0.719,0.365 -0.736,-0.141 -1.022,-0.104 -0.636,0.079 0.387,0.184 0.544,0.591 0.35,0.905 -0.226,0.365 0.128,0.433 0.975,0.189 1.023,-0.295 0.91,-0.117 -0.493,0.772 -7.049,4.474 -19.112,5.157 -34.255,1.94 -3.845,-0.817 -7.447,-1.504 -8.004,-1.528 -0.688,-0.029 -0.929,-0.363 -0.751,-1.041 0.172,-0.661 -0.053,-1.001 -0.666,-1.007 -0.804,-0.008 -0.816,-0.083 -0.087,-0.576 0.914,-0.616 1.144,-0.586 8.949,1.16 M -1.92,-3.678 c 0.554,0.554 -2.023,1.712 -5.339,2.401 -3.423,0.711 -11.059,0.683 -11.059,-0.039 0,-0.269 0.393,-0.489 0.872,-0.489 0.48,0 0.717,-0.252 0.527,-0.559 -0.213,-0.344 0.795,-0.575 2.623,-0.601 1.633,-0.022 4.102,-0.243 5.486,-0.489 3.268,-0.581 6.43,-0.684 6.89,-0.224 m -108.126,-2.925 c 8.654,2.31 13.865,3.165 20.974,3.442 3.692,0.143 8.321,0.355 10.287,0.472 2.197,0.128 3.275,0.019 2.796,-0.284 -1.271,-0.804 -0.195,-0.577 1.535,0.326 l 1.602,0.835 -1.426,0.003 c -0.784,0.002 -1.741,0.319 -2.125,0.704 -0.499,0.498 -3.058,0.69 -8.922,0.67 -8.363,-0.028 -18.222,-1.429 -23.725,-3.371 -1.296,-0.457 -2.994,-0.691 -3.774,-0.52 l -1.417,0.311 0.164,35.83 c 0.093,20.418 -0.047,35.702 -0.326,35.529 -0.27,-0.167 -0.491,0.052 -0.491,0.486 0,0.435 0.21,0.66 0.467,0.502 0.256,-0.158 0.466,0.134 0.466,0.649 0,0.7 -0.32,0.852 -1.259,0.6 -0.692,-0.185 -1.447,-0.341 -1.677,-0.345 -0.231,-0.005 -0.42,-0.251 -0.42,-0.549 0,-0.298 0.315,-0.421 0.699,-0.274 0.899,0.346 1.038,-74.163 0.14,-74.823 -0.308,-0.227 -0.057,-0.424 0.559,-0.44 1.003,-0.025 0.974,-0.115 -0.28,-0.871 -1.604,-0.967 -1.783,-0.999 6.153,1.118 m -9.694,34.559 -0.033,40.122 1.595,3.159 c 2.141,0.669 3.78,1.782 3.897,2.133 0.252,0.755 3.375,2.429 4.831,2.429 0.77,0 1.337,0.089 1.469,1.676 0.136,1.646 0.154,1.833 0.182,2.758 0.847,0.405 3.833,1.017 4.186,1.087 0.854,0.169 0.481,-77.532 -0.374,-77.532 -0.359,0 -0.507,-0.144 -0.33,-0.321 0.177,-0.178 2.924,0.326 6.106,1.118 11.881,2.96 21.188,3.769 26.641,2.317 3.446,-0.917 9.286,-3.772 10.373,-5.071 0.266,-0.318 0.349,-0.017 0.192,0.699 -0.152,0.693 -0.048,1.258 0.232,1.258 0.278,0 0.506,-0.251 0.506,-0.559 0,-0.307 0.291,-0.559 0.646,-0.559 0.389,0 0.282,0.403 -0.27,1.013 -0.822,0.908 -0.932,4.242 -1.066,32.44 -0.082,17.285 0.04,31.428 0.271,31.428 -0.105,3.413 -0.252,7.155 -0.175,10.714 0.034,1.165 0.072,1.172 1.14,0.205 0.608,-0.551 0.946,-1.282 0.75,-1.625 -0.196,-0.344 -0.159,-0.447 0.082,-0.229 0.471,0.424 3.578,-2.539 5.099,-4.861 1.244,-1.897 2.503,-1.766 3.987,0.414 0.679,0.998 2.428,2.947 3.887,4.331 1.459,1.385 2.365,2.131 2.013,1.658 -0.425,-0.569 -0.482,-1.555 -0.171,-2.935 l -0.228,-6.32 c -0.113,-1.512 -0.239,-17.239 -0.281,-34.946 -0.062,-26.675 -0.211,-32.459 -0.872,-33.732 -0.729,-1.406 -0.584,-1.35 1.684,0.647 2.873,2.528 8.401,5.389 12.029,6.225 5.448,1.255 13.051,0.575 24.459,-2.186 C -3.521,4 -0.123,3.378 0.268,3.528 0.835,3.745 0.949,11.534 0.831,42.06 0.691,78.353 0.734,80.309 1.67,80.13 c 0.543,-0.104 1.175,-0.208 1.406,-0.232 0.231,-0.023 0.42,-0.903 0.42,-1.955 0,-1.801 0.164,-1.967 2.825,-2.851 1.554,-0.517 3.253,-1.387 3.776,-1.935 0.522,-0.547 2.636,-3.107 4.482,-3.637 1.846,-0.53 1.331,-1.695 1.557,-2.048 0.482,-0.755 1.379,-79.46 0.899,-79.46 -0.179,0 -3.168,0.861 -6.641,1.914 -10.235,3.103 -17.244,4.406 -28.005,4.358 -8.512,-0.038 -17.739,-1.445 -25.857,-2.725 -2.576,-0.407 -10.321,-0.89 -16.975,-0.039 -24.294,3.106 -37.083,3.743 -53.407,-1.41 -2.853,-0.9 -5.819,-0.934 -6.052,-0.939 l 0.162,38.785 z"
             style="fill:#b3c9cf;fill-opacity:1;fill-rule:nonzero;stroke:none"
             id="path108" /></g><g
           id="g110"
           transform="translate(24.5317,160.2686)"><path
             d="m 0,0 c 0,32.316 -0.243,41.863 0.305,42.293 0.826,0.648 6.491,2.355 7.554,2.355 1.414,0 0.52,-2.059 -1.147,-2.64 l -1.678,-0.585 0,-39.241 c 0,-37.143 0.052,-39.222 0.979,-38.866 0.538,0.206 3.621,1.102 6.851,1.989 10.49,2.882 15.268,3.578 24.61,3.582 9.5,0.005 16.345,-1.045 27.313,-4.19 l 5.779,-1.657 4.337,1.37 c 2.386,0.754 7.714,2.067 11.84,2.918 10.032,2.069 22.206,2.197 31.553,0.332 5.34,-1.065 14.009,-3.335 16.736,-4.382 0.798,-0.305 0.883,3.394 0.883,38.807 l 0,39.144 -1.679,0.695 c -0.923,0.382 -1.655,1.062 -1.677,1.511 -0.065,1.274 1.474,1.093 5.647,-0.414 l 2.55,-0.708 c 0.473,-28.185 0.512,-56.545 -0.012,-84.725 l -4.895,1.579 c -6.897,2.177 -15.092,3.494 -21.953,4.247 -7.167,0.786 -21.283,0.444 -35.442,-1.279 -7.555,-0.92 -8.381,-1.198 -15.91,-0.282 -25.832,3.144 -39.73,3.015 -56.459,-2.292 -2.833,-0.9 -5.67,-1.831 -5.836,-1.665 C -0.113,-28.268 0.017,-13.842 0,0"
             style="fill:#67391a;fill-opacity:1;fill-rule:nonzero;stroke:none"
             id="path112" /></g><g
           id="g114"><g
             id="g116" /><g
             id="g134"><g
               clip-path="url(#clipPath118)"
               id="g136"><g
                 id="g138"><g
                   id="g140" /><g
                   id="g142"><g
                     clip-path="url(#clipPath122)"
                     id="g144"><text
                       transform="matrix(1,0,0,-1,61.4321,199.4854)"
                       id="text146"><tspan
                         style="fill:#000000;fill-opacity:1;fill-rule:nonzero;stroke:none;font-family:Microsoft Uighur;font-variant:normal;font-weight:normal;font-stretch:normal;font-size:21.2715;writing-mode:lr;-inkscape-font-specification:MicrosoftUighur"
                         x="0"
                         y="0"
                         id="tspan148">I</tspan></text>
</g></g></g><g
                 id="g150"><g
                   id="g152" /><g
                   id="g154"><g
                     clip-path="url(#clipPath126)"
                     id="g156"><text
                       transform="matrix(1,0,0,-1,49.7983,172.8955)"
                       id="text158"><tspan
                         style="fill:#000000;fill-opacity:1;fill-rule:nonzero;stroke:none;font-family:Microsoft Uighur;font-variant:normal;font-weight:normal;font-stretch:normal;font-size:21.2715;writing-mode:lr;-inkscape-font-specification:MicrosoftUighur"
                         x="0 5.0413455 10.082691 13.18833 18.2296755 23.271021"
                         y="0"
                         sodipodi:role="line"
                         id="tspan160">II III</tspan></text>
</g></g></g><g
                 id="g162"><g
                   id="g164" /><g
                   id="g166"><g
                     clip-path="url(#clipPath130)"
                     id="g168"><text
                       transform="matrix(1,0,0,-1,49.8823,146.3057)"
                       id="text170"><tspan
                         style="fill:#000000;fill-opacity:1;fill-rule:nonzero;stroke:none;font-family:Microsoft Uighur;font-variant:normal;font-weight:normal;font-stretch:normal;font-size:21.2715;writing-mode:lr;-inkscape-font-specification:MicrosoftUighur"
                         x="0 5.0413455 15.0389505 18.1445895"
                         y="0"
                         sodipodi:role="line"
                         id="tspan172">IV V</tspan></text>
</g></g></g></g></g></g><g
           id="g174"><g
             id="g176" /><g
             id="g194"><g
               clip-path="url(#clipPath178)"
               id="g196"><g
                 id="g198"><g
                   id="g200" /><g
                   id="g202"><g
                     clip-path="url(#clipPath182)"
                     id="g204"><text
                       transform="matrix(1,0,0,-1,105.8442,195.4932)"
                       id="text206"><tspan
                         style="fill:#000000;fill-opacity:1;fill-rule:nonzero;stroke:none;font-family:Microsoft Uighur;font-variant:normal;font-weight:normal;font-stretch:normal;font-size:21.2715;writing-mode:lr;-inkscape-font-specification:MicrosoftUighur"
                         x="0 9.997605 15.0389505 18.1445895 28.1421945 33.18354"
                         y="0"
                         sodipodi:role="line"
                         id="tspan208">VI VII</tspan></text>
</g></g></g><g
                 id="g210"><g
                   id="g212" /><g
                   id="g214"><g
                     clip-path="url(#clipPath186)"
                     id="g216"><text
                       transform="matrix(1,0,0,-1,103.3052,168.9033)"
                       id="text218"><tspan
                         style="fill:#000000;fill-opacity:1;fill-rule:nonzero;stroke:none;font-family:Microsoft Uighur;font-variant:normal;font-weight:normal;font-stretch:normal;font-size:21.2715;writing-mode:lr;-inkscape-font-specification:MicrosoftUighur"
                         x="0 9.997605 15.0389505 20.080296 25.1216415 28.2272805 33.268626"
                         y="0"
                         sodipodi:role="line"
                         id="tspan220">VIII IX</tspan></text>
</g></g></g><g
                 id="g222"><g
                   id="g224" /><g
                   id="g226"><g
                     clip-path="url(#clipPath190)"
                     id="g228"><text
                       transform="matrix(1,0,0,-1,119.9336,142.3154)"
                       id="text230"><tspan
                         style="fill:#000000;fill-opacity:1;fill-rule:nonzero;stroke:none;font-family:Microsoft Uighur;font-variant:normal;font-weight:normal;font-stretch:normal;font-size:21.2715;writing-mode:lr;-inkscape-font-specification:MicrosoftUighur"
                         x="0"
                         y="0"
                         id="tspan232">X</tspan></text>
</g></g></g></g></g></g><g
           id="g234"
           transform="translate(160.3462,288.1816)"><path
             d="M 0,0 C 0.013,9.058 -7.318,16.411 -16.376,16.424 -25.433,16.438 -32.786,9.105 -32.8,0.049 L -32.8,0 c -0.013,-9.057 7.319,-16.41 16.376,-16.423 C -7.367,-16.437 -0.013,-9.104 0,-0.048 L 0,0 z"
             style="fill:#ffffff;fill-opacity:1;fill-rule:nonzero;stroke:none"
             id="path236" /></g><g
           id="g238"
           transform="translate(160.3462,293.9443)"><path
             d="M 0,0 C 0.009,5.875 -4.747,10.645 -10.622,10.653 -16.497,10.662 -21.267,5.906 -21.275,0.031 l 0,-0.031 c -0.009,-5.875 4.747,-10.645 10.622,-10.653 C -4.778,-10.662 -0.009,-5.906 0,-0.031 L 0,0 z"
             style="fill:#c62a36;fill-opacity:1;fill-rule:nonzero;stroke:none"
             id="path240" /></g><g
           id="g242"
           transform="translate(164.7783,314.4814)"><path
             d="m 0,0 c 0.014,-9.058 -7.318,-16.411 -16.375,-16.424 -9.058,-0.014 -16.411,7.319 -16.424,16.376 l 0,0.048 c -0.014,9.057 7.318,16.41 16.375,16.424 C -7.366,16.437 -0.013,9.105 0,0.048 L 0,0 z"
             style="fill:#ffffff;fill-opacity:1;fill-rule:nonzero;stroke:none"
             id="path244" /></g><g
           id="g246"
           transform="translate(164.7783,308.7188)"><path
             d="m 0,0 c 0.009,-5.875 -4.747,-10.645 -10.622,-10.653 -5.875,-0.009 -10.645,4.747 -10.653,10.622 l 0,0.031 c -0.009,5.875 4.747,10.645 10.622,10.653 C -4.778,10.662 -0.008,5.906 0,0.031 L 0,0 z"
             style="fill:#c62a36;fill-opacity:1;fill-rule:nonzero;stroke:none"
             id="path248" /></g><g
           id="g250"
           transform="translate(161.2329,314.4814)"><path
             d="m 0,0 c -0.014,-9.058 7.318,-16.411 16.375,-16.424 9.058,-0.014 16.412,7.319 16.424,16.376 l 0,0.048 C 32.812,9.057 25.481,16.41 16.423,16.424 7.366,16.437 0.013,9.105 0,0.048 L 0,0 z"
             style="fill:#ffffff;fill-opacity:1;fill-rule:nonzero;stroke:none"
             id="path252" /></g><g
           id="g254"
           transform="translate(161.2329,308.7188)"><path
             d="m 0,0 c -0.009,-5.875 4.747,-10.645 10.622,-10.653 5.875,-0.009 10.645,4.747 10.653,10.622 l 0,0.031 C 21.284,5.875 16.528,10.645 10.653,10.653 4.778,10.662 0.008,5.906 0,0.031 L 0,0 z"
             style="fill:#c62a36;fill-opacity:1;fill-rule:nonzero;stroke:none"
             id="path256" /></g><g
           id="g258"
           transform="translate(165.665,288.1816)"><path
             d="M 0,0 C -0.013,9.058 7.318,16.411 16.376,16.424 25.433,16.438 32.786,9.105 32.8,0.049 L 32.8,0 C 32.813,-9.057 25.481,-16.41 16.424,-16.423 7.366,-16.437 0.013,-9.104 0,-0.048 L 0,0 z"
             style="fill:#ffffff;fill-opacity:1;fill-rule:nonzero;stroke:none"
             id="path260" /></g><g
           id="g262"
           transform="translate(165.665,293.9443)"><path
             d="M 0,0 C -0.009,5.875 4.747,10.645 10.622,10.653 16.497,10.662 21.267,5.906 21.275,0.031 L 21.275,0 C 21.284,-5.875 16.528,-10.645 10.653,-10.653 4.778,-10.662 0.008,-5.906 0,-0.031 L 0,0 z"
             style="fill:#c62a36;fill-opacity:1;fill-rule:nonzero;stroke:none"
             id="path264" /></g><g
           id="g266"
           transform="translate(151.4092,285.5947)"><path
             d="m 0,0 c 6.395,6.414 16.779,6.429 23.193,0.034 6.413,-6.395 6.429,-16.779 0.034,-23.193 -0.012,-0.011 -0.023,-0.023 -0.034,-0.033 C 16.797,-29.606 6.414,-29.622 0,-23.227 -6.414,-16.831 -6.429,-6.448 -0.034,-0.034 -0.022,-0.022 -0.011,-0.011 0,0"
             style="fill:#ffffff;fill-opacity:1;fill-rule:nonzero;stroke:none"
             id="path268" /></g><g
           id="g270"
           transform="translate(155.4834,289.6689)"><path
             d="m 0,0 c 4.148,4.161 10.884,4.171 15.044,0.022 4.161,-4.148 4.17,-10.883 0.022,-15.043 -0.007,-0.008 -0.015,-0.015 -0.022,-0.023 C 10.896,-19.204 4.161,-19.214 0,-15.065 -4.16,-10.918 -4.17,-4.183 -0.022,-0.021 -0.015,-0.015 -0.007,-0.007 0,0"
             style="fill:#c62a36;fill-opacity:1;fill-rule:nonzero;stroke:none"
             id="path272" /></g><g
           id="g274"
           transform="translate(160.3462,288.1816)"><path
             d="M 0,0 C 0.013,9.058 -7.318,16.411 -16.376,16.424 -25.433,16.438 -32.786,9.105 -32.8,0.049 L -32.8,0 c -0.013,-9.057 7.319,-16.41 16.376,-16.423 C -7.367,-16.437 -0.013,-9.104 0,-0.048 L 0,0 z"
             style="fill:#ffffff;fill-opacity:1;fill-rule:nonzero;stroke:none"
             id="path276" /></g><g
           id="g278"
           transform="translate(160.4961,288.1826)"><path
             d="m 0,0 c 0.016,-4.307 -1.293,-8.777 -4.247,-12.31 -1.459,-1.756 -3.33,-3.241 -5.467,-4.201 -2.116,-0.995 -4.505,-1.461 -6.818,-1.512 -4.763,-0.059 -9.428,1.998 -12.626,5.409 -1.609,1.69 -2.881,3.695 -3.666,5.87 -0.8,2.17 -1.078,4.496 -0.947,6.744 0.266,4.522 2.215,8.766 5.273,11.955 1.519,1.607 3.326,2.968 5.349,3.985 2.015,1.015 4.302,1.636 6.586,1.731 2.336,0.093 4.669,-0.337 6.806,-1.268 2.133,-0.929 4.013,-2.382 5.488,-4.117 C -1.317,8.761 -0.014,4.301 0,0 m -0.3,-0.002 c 0.017,2.136 -0.499,4.259 -1.444,6.138 -0.937,1.888 -2.317,3.503 -3.877,4.8 -1.561,1.307 -3.318,2.295 -5.155,3.011 -1.832,0.721 -3.798,1.136 -5.759,1.227 -2.014,0.1 -4.026,-0.127 -5.98,-0.762 -1.947,-0.63 -3.78,-1.707 -5.295,-3.144 -3.054,-2.874 -4.642,-7.18 -4.318,-11.268 0.275,-4.099 2.136,-7.899 4.976,-10.61 2.857,-2.708 6.737,-4.203 10.584,-4.214 3.936,-0.072 7.752,1.376 10.924,3.909 1.559,1.292 2.937,2.903 3.877,4.786 0.948,1.875 1.467,3.996 1.467,6.127"
             style="fill:#aa0000;fill-opacity:1;fill-rule:nonzero;stroke:none"
             id="path280" /></g><g
           id="g282"
           transform="translate(160.3462,293.9443)"><path
             d="M 0,0 C 0.009,5.875 -4.747,10.645 -10.622,10.653 -16.497,10.662 -21.267,5.906 -21.275,0.031 l 0,-0.031 c -0.009,-5.875 4.747,-10.645 10.622,-10.653 C -4.778,-10.662 -0.009,-5.906 0,-0.031 L 0,0 z"
             style="fill:#c62a36;fill-opacity:1;fill-rule:nonzero;stroke:none"
             id="path284" /></g><g
           id="g286"
           transform="translate(164.7783,314.4814)"><path
             d="m 0,0 c 0.014,-9.058 -7.318,-16.411 -16.375,-16.424 -9.058,-0.014 -16.411,7.319 -16.424,16.376 l 0,0.048 c -0.014,9.057 7.318,16.41 16.375,16.424 C -7.366,16.437 -0.013,9.105 0,0.048 L 0,0 z"
             style="fill:#ffffff;fill-opacity:1;fill-rule:nonzero;stroke:none"
             id="path288" /></g><g
           id="g290"
           transform="translate(164.6284,314.4824)"><path
             d="m 0,0 c 0,2.131 -0.52,4.252 -1.467,6.127 -0.939,1.883 -2.318,3.494 -3.877,4.786 -3.172,2.533 -6.989,3.982 -10.924,3.91 -3.847,-0.011 -7.727,-1.506 -10.583,-4.215 -2.84,-2.711 -4.702,-6.511 -4.977,-10.609 -0.323,-4.089 1.264,-8.394 4.318,-11.269 1.514,-1.437 3.347,-2.514 5.295,-3.143 1.954,-0.636 3.965,-0.862 5.98,-0.763 1.961,0.091 3.926,0.506 5.758,1.227 1.838,0.716 3.596,1.704 5.156,3.011 1.56,1.297 2.94,2.912 3.877,4.799 C -0.499,-4.259 0.017,-2.136 0,0 m 0.3,-0.002 c -0.014,-4.301 -1.317,-8.761 -4.268,-12.286 -1.476,-1.735 -3.356,-3.188 -5.489,-4.117 -2.137,-0.931 -4.47,-1.361 -6.806,-1.268 -2.284,0.096 -4.571,0.716 -6.587,1.731 -2.022,1.017 -3.829,2.378 -5.348,3.985 -3.057,3.189 -5.007,7.434 -5.273,11.956 -0.131,2.248 0.148,4.574 0.947,6.744 0.785,2.174 2.057,4.18 3.666,5.869 3.198,3.411 7.862,5.468 12.626,5.41 2.314,-0.052 4.702,-0.518 6.818,-1.513 2.138,-0.96 4.008,-2.444 5.467,-4.201 C -0.993,8.775 0.316,4.305 0.3,-0.002"
             style="fill:#aa0000;fill-opacity:1;fill-rule:nonzero;stroke:none"
             id="path292" /></g><g
           id="g294"
           transform="translate(164.7783,308.7188)"><path
             d="m 0,0 c 0.009,-5.875 -4.747,-10.645 -10.622,-10.653 -5.875,-0.009 -10.645,4.747 -10.653,10.622 l 0,0.031 c -0.009,5.875 4.747,10.645 10.622,10.653 C -4.778,10.662 -0.008,5.906 0,0.031 L 0,0 z"
             style="fill:#c62a36;fill-opacity:1;fill-rule:nonzero;stroke:none"
             id="path296" /></g><g
           id="g298"
           transform="translate(161.2329,314.4814)"><path
             d="m 0,0 c -0.014,-9.058 7.318,-16.411 16.375,-16.424 9.058,-0.014 16.412,7.319 16.424,16.376 l 0,0.048 C 32.812,9.057 25.481,16.41 16.423,16.424 7.366,16.437 0.013,9.105 0,0.048 L 0,0 z"
             style="fill:#ffffff;fill-opacity:1;fill-rule:nonzero;stroke:none"
             id="path300" /></g><g
           id="g302"
           transform="translate(161.083,314.4805)"><path
             d="m 0,0 c -0.016,4.307 1.293,8.777 4.247,12.31 1.459,1.757 3.329,3.241 5.466,4.201 2.117,0.995 4.505,1.462 6.819,1.513 4.763,0.058 9.427,-1.999 12.626,-5.41 1.609,-1.689 2.88,-3.695 3.665,-5.869 0.8,-2.17 1.078,-4.497 0.948,-6.745 -0.266,-4.521 -2.215,-8.766 -5.273,-11.955 -1.519,-1.607 -3.326,-2.968 -5.349,-3.985 -2.015,-1.015 -4.302,-1.635 -6.586,-1.731 -2.336,-0.093 -4.669,0.337 -6.806,1.268 -2.133,0.929 -4.013,2.382 -5.489,4.117 C 1.316,-8.761 0.014,-4.301 0,0 m 0.3,0.002 c -0.017,-2.136 0.498,-4.259 1.444,-6.139 0.937,-1.887 2.317,-3.502 3.877,-4.799 1.561,-1.307 3.317,-2.295 5.155,-3.011 1.832,-0.721 3.798,-1.136 5.759,-1.227 2.014,-0.099 4.026,0.127 5.98,0.763 1.947,0.629 3.78,1.706 5.295,3.143 3.053,2.874 4.641,7.18 4.318,11.268 -0.275,4.099 -2.137,7.899 -4.977,10.61 -2.857,2.708 -6.737,4.203 -10.583,4.215 C 12.632,14.896 8.815,13.448 5.644,10.915 4.084,9.623 2.706,8.012 1.767,6.129 0.819,4.254 0.3,2.133 0.3,0.002"
             style="fill:#aa0000;fill-opacity:1;fill-rule:nonzero;stroke:none"
             id="path304" /></g><g
           id="g306"
           transform="translate(161.2329,308.7188)"><path
             d="m 0,0 c -0.009,-5.875 4.747,-10.645 10.622,-10.653 5.875,-0.009 10.645,4.747 10.653,10.622 l 0,0.031 C 21.284,5.875 16.528,10.645 10.653,10.653 4.778,10.662 0.008,5.906 0,0.031 L 0,0 z"
             style="fill:#c62a36;fill-opacity:1;fill-rule:nonzero;stroke:none"
             id="path308" /></g><g
           id="g310"
           transform="translate(165.665,288.1816)"><path
             d="M 0,0 C -0.013,9.058 7.318,16.411 16.376,16.424 25.433,16.438 32.786,9.105 32.8,0.049 L 32.8,0 C 32.813,-9.057 25.481,-16.41 16.424,-16.423 7.366,-16.437 0.013,-9.104 0,-0.048 L 0,0 z"
             style="fill:#ffffff;fill-opacity:1;fill-rule:nonzero;stroke:none"
             id="path312" /></g><g
           id="g314"
           transform="translate(165.8149,288.1807)"><path
             d="m 0,0 c 0,-2.131 0.52,-4.252 1.467,-6.127 0.94,-1.883 2.318,-3.494 3.877,-4.786 3.172,-2.533 6.989,-3.981 10.924,-3.909 3.847,0.011 7.727,1.506 10.584,4.214 2.84,2.711 4.701,6.511 4.977,10.609 0.323,4.089 -1.265,8.394 -4.319,11.269 -1.514,1.437 -3.347,2.514 -5.295,3.143 -1.954,0.636 -3.965,0.863 -5.979,0.763 C 14.274,15.085 12.309,14.67 10.477,13.949 8.639,13.233 6.882,12.245 5.321,10.938 3.761,9.641 2.381,8.026 1.444,6.138 0.499,4.259 -0.017,2.136 0,0 m -0.3,0.002 c 0.014,4.301 1.317,8.761 4.269,12.286 1.475,1.735 3.355,3.188 5.488,4.117 2.137,0.931 4.47,1.361 6.807,1.268 2.283,-0.095 4.57,-0.716 6.586,-1.731 2.023,-1.017 3.828,-2.379 5.349,-3.985 3.056,-3.189 5.007,-7.434 5.272,-11.956 0.131,-2.247 -0.147,-4.574 -0.946,-6.744 -0.785,-2.174 -2.058,-4.18 -3.666,-5.869 -3.198,-3.411 -7.863,-5.468 -12.627,-5.409 -2.313,0.051 -4.702,0.517 -6.818,1.512 -2.137,0.96 -4.008,2.445 -5.467,4.201 -2.953,3.533 -4.263,8.003 -4.247,12.31"
             style="fill:#aa0000;fill-opacity:1;fill-rule:nonzero;stroke:none"
             id="path316" /></g><g
           id="g318"
           transform="translate(165.665,293.9443)"><path
             d="M 0,0 C -0.009,5.875 4.747,10.645 10.622,10.653 16.497,10.662 21.267,5.906 21.275,0.031 L 21.275,0 C 21.284,-5.875 16.528,-10.645 10.653,-10.653 4.778,-10.662 0.008,-5.906 0,-0.031 L 0,0 z"
             style="fill:#c62a36;fill-opacity:1;fill-rule:nonzero;stroke:none"
             id="path320" /></g><g
           id="g322"
           transform="translate(151.4092,285.5947)"><path
             d="m 0,0 c 6.395,6.414 16.779,6.429 23.193,0.034 6.413,-6.395 6.429,-16.779 0.034,-23.193 -0.012,-0.011 -0.023,-0.023 -0.034,-0.033 C 16.797,-29.606 6.414,-29.622 0,-23.227 -6.414,-16.831 -6.429,-6.448 -0.034,-0.034 -0.022,-0.022 -0.011,-0.011 0,0"
             style="fill:#ffffff;fill-opacity:1;fill-rule:nonzero;stroke:none"
             id="path324" /></g><g
           id="g326"
           transform="translate(151.5132,285.4868)"><path
             d="m 0,0 c -1.503,-1.507 -2.637,-3.375 -3.292,-5.369 -0.667,-1.996 -0.833,-4.11 -0.645,-6.125 0.458,-4.041 2.114,-7.741 4.975,-10.504 2.701,-2.68 6.52,-4.389 10.448,-4.489 3.932,-0.085 7.913,1.269 11.036,3.997 1.509,1.323 2.827,3.019 3.663,4.921 0.86,1.898 1.279,4.001 1.237,6.086 -0.054,2.087 -0.589,4.145 -1.522,5.967 -0.938,1.837 -2.18,3.4 -3.698,4.779 -1.431,1.299 -3.13,2.411 -4.93,3.192 C 15.467,3.248 13.526,3.792 11.498,3.972 9.478,4.159 7.361,3.992 5.363,3.319 3.365,2.658 1.502,1.524 0,0 m -0.208,0.216 c 3.05,3.027 7.125,5.262 11.705,5.667 2.27,0.183 4.626,-0.12 6.792,-0.97 2.173,-0.859 4.11,-2.187 5.72,-3.927 1.523,-1.658 2.719,-3.734 3.421,-5.87 0.711,-2.149 1.028,-4.389 0.965,-6.6 -0.101,-4.423 -1.705,-8.78 -4.74,-12.195 -1.466,-1.652 -3.334,-3.122 -5.425,-4.084 -2.092,-0.983 -4.409,-1.503 -6.742,-1.56 -4.68,-0.142 -9.409,1.682 -12.766,5.117 -1.569,1.641 -2.952,3.686 -3.738,5.877 -0.832,2.19 -1.107,4.562 -0.895,6.836 0.411,4.588 2.647,8.67 5.703,11.709"
             style="fill:#aa0000;fill-opacity:1;fill-rule:nonzero;stroke:none"
             id="path328" /></g><g
           id="g330"
           transform="translate(155.4834,289.6689)"><path
             d="m 0,0 c 4.148,4.161 10.884,4.171 15.044,0.022 4.161,-4.148 4.17,-10.883 0.022,-15.043 -0.007,-0.008 -0.015,-0.015 -0.022,-0.023 C 10.896,-19.204 4.161,-19.214 0,-15.065 -4.16,-10.918 -4.17,-4.183 -0.022,-0.021 -0.015,-0.015 -0.007,-0.007 0,0"
             style="fill:#c62a36;fill-opacity:1;fill-rule:nonzero;stroke:none"
             id="path332" /></g><g
           id="g334"
           transform="translate(162.252,294.2969)"><path
             d="M 0,0 C 0.004,2.565 -2.073,4.649 -4.64,4.653 -7.206,4.656 -9.29,2.579 -9.293,0.013 l 0,-0.013 c -0.004,-2.566 2.073,-4.65 4.64,-4.654 2.566,-0.003 4.649,2.074 4.653,4.64 L 0,0 z"
             style="fill:#aa0000;fill-opacity:1;fill-rule:nonzero;stroke:none"
             id="path336" /></g><g
           id="g338"
           transform="translate(162.252,295.9287)"><path
             d="M 0,0 C 0.002,1.665 -1.345,3.017 -3.01,3.019 -4.674,3.021 -6.025,1.674 -6.028,0.009 l 0,-0.009 c -0.002,-1.664 1.345,-3.016 3.009,-3.018 1.665,-0.003 3.017,1.345 3.019,3.009 L 0,0 z"
             style="fill:#800000;fill-opacity:1;fill-rule:nonzero;stroke:none"
             id="path340" /></g><g
           id="g342"
           transform="translate(163.5078,301.748)"><path
             d="m 0,0 c 0.004,-2.566 -2.074,-4.649 -4.64,-4.653 -2.566,-0.004 -4.65,2.073 -4.653,4.639 l 0,0.014 C -9.297,2.566 -7.22,4.649 -4.653,4.653 -2.087,4.657 -0.004,2.58 0,0.014 L 0,0 z"
             style="fill:#aa0000;fill-opacity:1;fill-rule:nonzero;stroke:none"
             id="path344" /></g><g
           id="g346"
           transform="translate(163.5078,300.1152)"><path
             d="m 0,0 c 0.002,-1.665 -1.345,-3.016 -3.01,-3.019 -1.664,-0.002 -3.015,1.345 -3.018,3.01 l 0,0.009 C -6.03,1.665 -4.683,3.016 -3.019,3.019 -1.354,3.021 -0.002,1.674 0,0.009 L 0,0 z"
             style="fill:#800000;fill-opacity:1;fill-rule:nonzero;stroke:none"
             id="path348" /></g><g
           id="g350"
           transform="translate(162.5034,301.748)"><path
             d="m 0,0 c -0.004,-2.566 2.073,-4.649 4.64,-4.653 2.566,-0.004 4.649,2.073 4.653,4.639 L 9.293,0 C 9.297,2.566 7.22,4.649 4.653,4.653 2.087,4.657 0.003,2.58 0,0.014 L 0,0 z"
             style="fill:#aa0000;fill-opacity:1;fill-rule:nonzero;stroke:none"
             id="path352" /></g><g
           id="g354"
           transform="translate(162.5034,300.1152)"><path
             d="m 0,0 c -0.002,-1.665 1.345,-3.016 3.009,-3.019 1.665,-0.002 3.016,1.345 3.019,3.01 L 6.028,0 C 6.03,1.665 4.683,3.016 3.018,3.019 1.354,3.021 0.002,1.674 0,0.009 L 0,0 z"
             style="fill:#800000;fill-opacity:1;fill-rule:nonzero;stroke:none"
             id="path356" /></g><g
           id="g358"
           transform="translate(163.7593,294.2969)"><path
             d="M 0,0 C -0.004,2.565 2.073,4.649 4.64,4.653 7.206,4.656 9.289,2.579 9.293,0.013 L 9.293,0 C 9.297,-2.566 7.219,-4.65 4.653,-4.654 2.087,-4.657 0.003,-2.58 0,-0.014 L 0,0 z"
             style="fill:#aa0000;fill-opacity:1;fill-rule:nonzero;stroke:none"
             id="path360" /></g><g
           id="g362"
           transform="translate(163.7593,295.9287)"><path
             d="M 0,0 C -0.002,1.665 1.345,3.017 3.009,3.019 4.674,3.021 6.025,1.674 6.028,0.009 L 6.028,0 C 6.03,-1.664 4.683,-3.016 3.018,-3.018 1.354,-3.021 0.002,-1.673 0,-0.009 L 0,0 z"
             style="fill:#800000;fill-opacity:1;fill-rule:nonzero;stroke:none"
             id="path364" /></g><g
           id="g366"
           transform="translate(159.7197,293.5635)"><path
             d="M 0,0 C 1.812,1.817 4.754,1.821 6.571,0.01 8.389,-1.803 8.393,-4.744 6.581,-6.562 6.578,-6.564 6.575,-6.568 6.571,-6.571 4.76,-8.389 1.817,-8.393 0,-6.581 -1.817,-4.769 -1.821,-1.827 -0.009,-0.01 -0.006,-0.007 -0.003,-0.003 0,0"
             style="fill:#aa0000;fill-opacity:1;fill-rule:nonzero;stroke:none"
             id="path368" /></g><g
           id="g370"
           transform="translate(160.8745,294.7178)"><path
             d="M 0,0 C 1.175,1.179 3.083,1.182 4.262,0.006 5.441,-1.169 5.444,-3.077 4.269,-4.256 4.267,-4.258 4.264,-4.261 4.262,-4.263 3.087,-5.441 1.179,-5.444 0,-4.269 -1.179,-3.094 -1.182,-1.185 -0.006,-0.006 -0.004,-0.004 -0.002,-0.002 0,0"
             style="fill:#800000;fill-opacity:1;fill-rule:nonzero;stroke:none"
             id="path372" /></g><g
           id="g374"
           transform="translate(159.9917,296.9629)"><path
             d="M 0,0 C -0.002,1.665 1.345,3.017 3.009,3.019 4.674,3.021 6.025,1.674 6.028,0.009 L 6.028,0 C 6.03,-1.664 4.683,-3.016 3.018,-3.019 1.354,-3.021 0.002,-1.673 0,-0.009 L 0,0 z"
             style="fill:#800000;fill-opacity:1;fill-rule:nonzero;stroke:none"
             id="path376" /></g></g></g></g></svg>